<mxfile host="Electron" agent="Mozilla/5.0 (X11; Linux x86_64) AppleWebKit/537.36 (KHTML, like Gecko) draw.io/26.1.1 Chrome/132.0.6834.210 Electron/34.3.3 Safari/537.36" version="26.1.1">
  <diagram name="Page-1" id="b5b7bab2-c9e2-2cf4-8b2a-24fd1a2a6d21">
    <mxGraphModel dx="1195" dy="698" grid="1" gridSize="10" guides="1" tooltips="1" connect="1" arrows="1" fold="1" page="1" pageScale="1" pageWidth="827" pageHeight="1169" background="none" math="0" shadow="0">
      <root>
        <mxCell id="0" />
        <mxCell id="1" parent="0" />
        <mxCell id="wNJ5z53ql_oTrxMJ_24B-1" value="Android устройство" style="verticalAlign=top;align=left;spacingTop=8;spacingLeft=2;spacingRight=12;shape=cube;size=10;direction=south;fontStyle=4;html=1;whiteSpace=wrap;" parent="1" vertex="1">
          <mxGeometry x="434" y="490" width="180" height="120" as="geometry" />
        </mxCell>
        <mxCell id="wNJ5z53ql_oTrxMJ_24B-2" value="Сервер" style="verticalAlign=top;align=left;spacingTop=8;spacingLeft=2;spacingRight=12;shape=cube;size=10;direction=south;fontStyle=4;html=1;whiteSpace=wrap;" parent="1" vertex="1">
          <mxGeometry x="539" y="290" width="170" height="120" as="geometry" />
        </mxCell>
        <mxCell id="wNJ5z53ql_oTrxMJ_24B-3" value="Сервер" style="verticalAlign=top;align=left;spacingTop=8;spacingLeft=2;spacingRight=12;shape=cube;size=10;direction=south;fontStyle=4;html=1;whiteSpace=wrap;" parent="1" vertex="1">
          <mxGeometry x="329" y="290" width="170" height="120" as="geometry" />
        </mxCell>
        <mxCell id="wNJ5z53ql_oTrxMJ_24B-8" value="База данных" style="verticalAlign=top;align=left;spacingTop=8;spacingLeft=2;spacingRight=12;shape=cube;size=10;direction=south;fontStyle=4;html=1;whiteSpace=wrap;" parent="1" vertex="1">
          <mxGeometry x="119" y="290" width="170" height="120" as="geometry" />
        </mxCell>
        <mxCell id="wNJ5z53ql_oTrxMJ_24B-5" value="PostgreSQL" style="shape=module;align=left;spacingLeft=20;align=center;verticalAlign=top;whiteSpace=wrap;html=1;" parent="1" vertex="1">
          <mxGeometry x="149" y="330" width="100" height="50" as="geometry" />
        </mxCell>
        <mxCell id="wNJ5z53ql_oTrxMJ_24B-9" value="Веб-браузер" style="verticalAlign=top;align=left;spacingTop=8;spacingLeft=2;spacingRight=12;shape=cube;size=10;direction=south;fontStyle=4;html=1;whiteSpace=wrap;" parent="1" vertex="1">
          <mxGeometry x="239" y="490" width="180" height="120" as="geometry" />
        </mxCell>
        <mxCell id="wNJ5z53ql_oTrxMJ_24B-12" style="edgeStyle=orthogonalEdgeStyle;rounded=0;orthogonalLoop=1;jettySize=auto;html=1;entryX=1;entryY=0.5;entryDx=0;entryDy=0;endArrow=none;startFill=0;" parent="1" source="wNJ5z53ql_oTrxMJ_24B-4" target="wNJ5z53ql_oTrxMJ_24B-5" edge="1">
          <mxGeometry relative="1" as="geometry" />
        </mxCell>
        <mxCell id="wNJ5z53ql_oTrxMJ_24B-21" value="SQL" style="edgeLabel;html=1;align=center;verticalAlign=middle;resizable=0;points=[];" parent="wNJ5z53ql_oTrxMJ_24B-12" vertex="1" connectable="0">
          <mxGeometry x="0.004" relative="1" as="geometry">
            <mxPoint as="offset" />
          </mxGeometry>
        </mxCell>
        <mxCell id="wNJ5z53ql_oTrxMJ_24B-4" value="Backend на Django" style="shape=module;align=left;spacingLeft=20;align=center;verticalAlign=top;whiteSpace=wrap;html=1;" parent="1" vertex="1">
          <mxGeometry x="349" y="330" width="100" height="50" as="geometry" />
        </mxCell>
        <mxCell id="wNJ5z53ql_oTrxMJ_24B-14" style="edgeStyle=orthogonalEdgeStyle;rounded=0;orthogonalLoop=1;jettySize=auto;html=1;entryX=1;entryY=0.5;entryDx=0;entryDy=0;endArrow=none;startFill=0;" parent="1" source="wNJ5z53ql_oTrxMJ_24B-6" target="wNJ5z53ql_oTrxMJ_24B-4" edge="1">
          <mxGeometry relative="1" as="geometry" />
        </mxCell>
        <mxCell id="wNJ5z53ql_oTrxMJ_24B-22" value="REST API" style="edgeLabel;html=1;align=center;verticalAlign=middle;resizable=0;points=[];" parent="wNJ5z53ql_oTrxMJ_24B-14" vertex="1" connectable="0">
          <mxGeometry x="-0.2046" relative="1" as="geometry">
            <mxPoint as="offset" />
          </mxGeometry>
        </mxCell>
        <mxCell id="wNJ5z53ql_oTrxMJ_24B-6" value="Внешнее API&lt;div&gt;Gigachat AI&lt;/div&gt;" style="shape=module;align=left;spacingLeft=20;align=center;verticalAlign=top;whiteSpace=wrap;html=1;" parent="1" vertex="1">
          <mxGeometry x="569" y="330" width="100" height="50" as="geometry" />
        </mxCell>
        <mxCell id="wNJ5z53ql_oTrxMJ_24B-18" style="edgeStyle=orthogonalEdgeStyle;rounded=0;orthogonalLoop=1;jettySize=auto;html=1;endArrow=none;startFill=0;" parent="1" source="wNJ5z53ql_oTrxMJ_24B-7" edge="1">
          <mxGeometry relative="1" as="geometry">
            <mxPoint x="399" y="380" as="targetPoint" />
            <Array as="points">
              <mxPoint x="514" y="470" />
              <mxPoint x="419" y="470" />
              <mxPoint x="419" y="380" />
            </Array>
          </mxGeometry>
        </mxCell>
        <mxCell id="wNJ5z53ql_oTrxMJ_24B-19" value="REST API" style="edgeLabel;html=1;align=center;verticalAlign=middle;resizable=0;points=[];" parent="wNJ5z53ql_oTrxMJ_24B-18" vertex="1" connectable="0">
          <mxGeometry x="-0.0769" relative="1" as="geometry">
            <mxPoint y="-1" as="offset" />
          </mxGeometry>
        </mxCell>
        <mxCell id="wNJ5z53ql_oTrxMJ_24B-7" value="Мобильное приложение" style="shape=module;align=left;spacingLeft=20;align=center;verticalAlign=top;whiteSpace=wrap;html=1;" parent="1" vertex="1">
          <mxGeometry x="464" y="540" width="100" height="50" as="geometry" />
        </mxCell>
        <mxCell id="wNJ5z53ql_oTrxMJ_24B-15" style="edgeStyle=orthogonalEdgeStyle;rounded=0;orthogonalLoop=1;jettySize=auto;html=1;exitX=0.5;exitY=0;exitDx=0;exitDy=0;entryX=0.5;entryY=1;entryDx=0;entryDy=0;endArrow=none;startFill=0;" parent="1" source="wNJ5z53ql_oTrxMJ_24B-10" target="wNJ5z53ql_oTrxMJ_24B-4" edge="1">
          <mxGeometry relative="1" as="geometry">
            <Array as="points">
              <mxPoint x="324" y="470" />
              <mxPoint x="399" y="470" />
            </Array>
          </mxGeometry>
        </mxCell>
        <mxCell id="wNJ5z53ql_oTrxMJ_24B-20" value="REST API" style="edgeLabel;html=1;align=center;verticalAlign=middle;resizable=0;points=[];" parent="wNJ5z53ql_oTrxMJ_24B-15" vertex="1" connectable="0">
          <mxGeometry x="0.0423" y="1" relative="1" as="geometry">
            <mxPoint as="offset" />
          </mxGeometry>
        </mxCell>
        <mxCell id="wNJ5z53ql_oTrxMJ_24B-10" value="Панель администрирования" style="shape=module;align=left;spacingLeft=20;align=center;verticalAlign=top;whiteSpace=wrap;html=1;" parent="1" vertex="1">
          <mxGeometry x="249" y="540" width="150" height="50" as="geometry" />
        </mxCell>
        <mxCell id="ccg8fwSU5qrGRqp3FVfZ-1" value="Сервер" style="verticalAlign=top;align=left;spacingTop=8;spacingLeft=2;spacingRight=12;shape=cube;size=10;direction=south;fontStyle=4;html=1;whiteSpace=wrap;" vertex="1" parent="1">
          <mxGeometry x="329.00000000000006" y="130" width="170" height="120" as="geometry" />
        </mxCell>
        <mxCell id="ccg8fwSU5qrGRqp3FVfZ-4" style="edgeStyle=orthogonalEdgeStyle;rounded=0;orthogonalLoop=1;jettySize=auto;html=1;entryX=0.5;entryY=0;entryDx=0;entryDy=0;endArrow=none;startFill=0;" edge="1" parent="1" source="ccg8fwSU5qrGRqp3FVfZ-3" target="wNJ5z53ql_oTrxMJ_24B-4">
          <mxGeometry relative="1" as="geometry" />
        </mxCell>
        <mxCell id="ccg8fwSU5qrGRqp3FVfZ-6" value="REST API" style="edgeLabel;html=1;align=center;verticalAlign=middle;resizable=0;points=[];" vertex="1" connectable="0" parent="ccg8fwSU5qrGRqp3FVfZ-4">
          <mxGeometry x="-0.1455" y="1" relative="1" as="geometry">
            <mxPoint as="offset" />
          </mxGeometry>
        </mxCell>
        <mxCell id="ccg8fwSU5qrGRqp3FVfZ-3" value="Внешнее API&lt;div&gt;&lt;span style=&quot;background-color: transparent; color: light-dark(rgb(0, 0, 0), rgb(255, 255, 255));&quot;&gt;ЮMoney&lt;/span&gt;&lt;/div&gt;" style="shape=module;align=left;spacingLeft=20;align=center;verticalAlign=top;whiteSpace=wrap;html=1;" vertex="1" parent="1">
          <mxGeometry x="349.00000000000006" y="170" width="100" height="50" as="geometry" />
        </mxCell>
      </root>
    </mxGraphModel>
  </diagram>
</mxfile>
